<svg xmlns="http://www.w3.org/2000/svg" width="100" height="100" viewBox="0 0 110 80" role="img" aria-labelledby="iconTitle iconDesc">
  <title id="iconTitle">UsersConnect Icon (White Version)</title>
  <desc id="iconDesc">Two interlocking chat bubbles in white with gradient highlights</desc>

  
  <defs>
    <linearGradient id="iconGradient" x1="0%" y1="0%" x2="100%" y2="0%">
      <stop offset="0%" stop-color="#007bff"></stop>
      <stop offset="100%" stop-color="#6610f2"></stop>
    </linearGradient>
    <filter id="iconShadow" x="-20%" y="-20%" width="140%" height="140%">
      <feDropShadow dx="0" dy="2" stdDeviation="2" flood-opacity="0.25" flood-color="#000000"></feDropShadow>
    </filter>
  </defs>

  
  <g transform="translate(16,16)" filter="url(#iconShadow)">
    
    <path d="M16 6 h28 a10 10 0 0 1 10 10 v12 a10 10 0 0 1 -10 10 h-9 l-7 7 v-7 h-12 a10 10 0 0 1 -10 -10 v-12 a10 10 0 0 1 10 -10 z" fill="white"></path>
    
    
    <path d="M34 0 h26 a10 10 0 0 1 10 10 v14 a10 10 0 0 1 -10 10 h-10 v7 l-7 -7 h-9 a10 10 0 0 1 -10 -10 v-7" fill="url(#iconGradient)" opacity="0.8"></path>
    
    
    <circle cx="50" cy="14" r="2.2" fill="url(#iconGradient)"></circle>
    <circle cx="56" cy="18" r="2.2" fill="url(#iconGradient)"></circle>
  </g>
</svg>